<svg width="173" height="173" viewBox="0 0 173 173" fill="none" xmlns="http://www.w3.org/2000/svg">
<mask id="path-1-inside-1" fill="white">
<path d="M173 86.5C173 134.273 134.273 173 86.5 173C38.7274 173 0 134.273 0 86.5C0 38.7274 38.7274 0 86.5 0C134.273 0 173 38.7274 173 86.5ZM23.2354 86.5C23.2354 121.44 51.5599 149.765 86.5 149.765C121.44 149.765 149.765 121.44 149.765 86.5C149.765 51.5599 121.44 23.2354 86.5 23.2354C51.5599 23.2354 23.2354 51.5599 23.2354 86.5Z"/>
</mask>
<path d="M173 86.5C173 134.273 134.273 173 86.5 173C38.7274 173 0 134.273 0 86.5C0 38.7274 38.7274 0 86.5 0C134.273 0 173 38.7274 173 86.5ZM23.2354 86.5C23.2354 121.44 51.5599 149.765 86.5 149.765C121.44 149.765 149.765 121.44 149.765 86.5C149.765 51.5599 121.44 23.2354 86.5 23.2354C51.5599 23.2354 23.2354 51.5599 23.2354 86.5Z" fill="#5C8FF2" stroke="black" stroke-width="10" mask="url(#path-1-inside-1)"/>
<ellipse cx="86.5" cy="86.5" rx="61.5" ry="65.5" fill="white"/>
<path d="M43.4525 37.2076L43.4525 37.2076L43.4453 37.2129C41.7807 38.4617 40.4677 39.7235 39.5203 41.0018C39.0553 41.6059 38.6947 42.1524 38.4484 42.6385C38.2052 43.1185 38.0528 43.5792 38.0528 44C38.0528 44.4166 38.2308 44.7782 38.5923 45.0076C38.9153 45.2127 39.3359 45.2806 39.7826 45.2806C40.7076 45.2806 41.6767 44.9877 42.6819 44.4415C43.6801 43.9231 44.7922 43.3573 46.0184 42.7441C49.2746 41.1226 52.7054 40.3129 56.3168 40.3129C59.7958 40.3129 62.3131 40.9914 63.9524 42.2657C65.5679 43.5215 66.4068 45.4165 66.4068 48.0452C66.4068 50.998 65.7394 53.1501 64.4839 54.5859C63.6187 54.3863 62.7179 54.2871 61.7826 54.2871C59.638 54.2871 57.9538 54.5599 56.7886 55.1585C56.1987 55.4615 55.7281 55.8552 55.4062 56.3512C55.0845 56.8471 54.9302 57.4168 54.9286 58.0418C54.9043 58.6997 55.0395 59.3021 55.3535 59.829C55.668 60.3567 56.1429 60.7769 56.7468 61.1004C57.9384 61.7388 59.6839 62.029 61.9193 62.029C62.5889 62.029 63.4002 61.9241 64.3451 61.7234C65.3715 62.8476 66.0861 64.1279 66.4941 65.5685C66.9326 67.1172 67.1584 69.1018 67.1584 71.5355C67.1584 73.5153 66.7047 75.1662 65.8224 76.5131C64.9401 77.8602 63.6061 78.9388 61.787 79.7355L61.786 79.736C60.3545 80.3668 58.7392 80.6871 56.9317 80.6871C55.2153 80.6871 53.1157 80.3555 50.6242 79.6781L51.2816 69.3673L51.2826 69.3514V69.3355C51.2826 68.6358 51.4541 67.4288 51.8174 65.6821C52.2284 63.9266 52.639 61.9836 53.0492 59.8533C53.5056 57.6726 53.9163 55.4684 54.2814 53.2406C54.6959 50.9906 54.9037 48.7855 54.9037 46.6258C54.9037 45.5497 54.8301 44.6961 54.6634 44.0967C54.5804 43.7982 54.4636 43.5219 54.288 43.3115C54.1 43.0862 53.8378 42.9323 53.5155 42.9323C52.2647 42.9323 51.0903 43.5574 49.9973 44.6803C48.9071 45.8003 47.8603 47.4514 46.8472 49.6033C44.9546 53.4881 43.3051 58.831 41.8896 65.6132C41.1053 69.3243 40.6924 72.9531 40.6523 76.4991C38.6175 75.9889 37.1524 75.7194 36.2981 75.7194C35.7969 75.7194 35.3361 75.859 34.9985 76.2097C34.6681 76.5528 34.5269 77.025 34.5006 77.5424L34.5 77.5551V77.5677C34.5 78.6289 34.9858 79.6417 35.8582 80.599C37.5713 82.5256 40.2026 84.1467 43.7033 85.4863C48.936 87.4888 53.712 88.5 58.0248 88.5C64.0615 88.5 69.0624 87.2075 72.9919 84.5836L72.992 84.5836L72.9989 84.5788C74.9696 83.2142 76.5463 81.5287 77.7231 79.5241C78.9053 77.5103 79.5 75.3652 79.5 73.0968C79.5 70.9043 79.3627 69.1159 79.0798 67.7441L79.0787 67.7393C78.2678 63.9956 75.7996 60.8457 71.7694 58.2738C75.988 55.6572 78.1335 51.9528 78.1335 47.1935C78.1335 42.9051 76.6727 39.4711 73.7251 36.9513C70.3134 33.9506 65.0451 32.5 58.0248 32.5L58.0204 32.5C52.591 32.5482 47.7297 34.117 43.4525 37.2076Z" fill="black" stroke="black"/>
<path d="M141.047 123.489L141.05 123.484C141.991 121.826 142.5 120.357 142.5 119.102C142.5 118.046 142.407 117.196 142.19 116.594C142.081 116.29 141.928 116.014 141.709 115.811C141.479 115.598 141.195 115.483 140.879 115.483C140.52 115.483 140.172 115.696 139.876 115.93C139.558 116.182 139.196 116.544 138.793 117.003C136.602 119.345 134.823 121.089 133.45 122.245C132.763 122.823 132.189 123.245 131.725 123.519C131.244 123.803 130.944 123.89 130.788 123.89C130.362 123.89 130.1 123.742 129.918 123.469C129.712 123.16 129.573 122.633 129.573 121.814C129.573 120.922 129.76 119.634 130.153 117.93C130.594 116.16 131.254 113.287 132.133 109.313C133.061 105.268 133.53 101.726 133.53 98.6949C133.53 95.2058 132.829 92.4962 131.342 90.6522C129.838 88.7877 127.599 87.8898 124.72 87.8898C121.022 87.8898 117.805 89.6245 115.071 92.9881C115.061 91.5598 114.946 90.2038 114.727 88.921C114.318 86.1767 113.306 84.0537 111.64 82.621C109.974 81.1874 107.718 80.5 104.933 80.5C100.116 80.5 96.1314 83.3204 92.9552 88.7412C92.8834 88.0578 92.7976 87.3953 92.6977 86.7536L92.6966 86.7465L92.6953 86.7394C92.3282 84.7584 91.5247 83.2149 90.244 82.1717C88.9648 81.1296 87.2694 80.6356 85.2124 80.6356C82.0447 80.6356 79.3208 81.474 77.0689 83.1724C74.714 84.836 73.5 87.0133 73.5 89.678C73.5 90.3168 73.5835 90.8742 73.8075 91.2886C73.9235 91.5033 74.0826 91.6892 74.294 91.8196C74.5068 91.9509 74.7445 92.0085 74.9893 92.0085C75.7832 92.0085 76.4996 91.8028 77.1187 91.3786C77.6568 91.0098 78.1728 90.618 78.6667 90.2031C79.1864 89.8025 79.6845 89.4241 80.1609 89.0679C80.6063 88.7648 81.0774 88.6186 81.5849 88.6186C81.9465 88.6186 82.2409 88.7089 82.4877 88.8759C82.7379 89.0453 82.968 89.3135 83.1644 89.7124C83.5642 90.5241 83.789 91.8046 83.789 93.6102C83.789 93.83 83.6945 94.5486 83.4824 95.8338C83.2744 97.0946 82.9618 98.8536 82.5443 101.112C80.2152 113.67 79.0403 122.167 79.0403 126.559C79.0403 128.733 79.3158 130.438 79.9196 131.618C80.2253 132.215 80.6223 132.691 81.1225 133.016C81.6252 133.344 82.2033 133.5 82.838 133.5C83.7863 133.5 84.673 133.305 85.491 132.91C86.2849 132.547 87.1004 132.162 87.9376 131.755L87.9376 131.755L87.9428 131.752C89.9673 130.737 90.9229 128.761 90.9229 126.017C90.9229 124.699 90.4971 121.956 89.6723 117.844L89.7333 116.653C89.9943 115.272 90.3633 113.644 90.8415 111.768L90.8418 111.766C92.6839 104.463 94.7556 99.1276 97.0382 95.7189C99.3456 92.273 101.568 90.7203 103.68 90.7203C104.272 90.7203 104.725 90.8419 105.066 91.0527C105.404 91.2607 105.669 91.5778 105.855 92.0353L105.858 92.0432L105.861 92.0511C106.304 93.0443 106.543 94.4552 106.544 96.3191C106.5 100.002 105.438 105.643 103.33 113.274L103.33 113.275C102.537 116.17 101.811 118.907 101.151 121.486C100.488 124.077 100.146 126.158 100.146 127.712C100.146 129.255 100.396 130.597 100.918 131.719L100.918 131.719L100.922 131.727C101.194 132.286 101.555 132.735 102.018 133.043C102.484 133.353 103.023 133.5 103.614 133.5C105.455 133.5 107.108 132.865 108.557 131.616L108.558 131.615C110.041 130.329 110.841 128.868 110.841 127.237C110.841 126.494 110.796 125.793 110.705 125.135L110.447 123.279C110.627 117.866 112.206 112.304 115.203 106.588L115.204 106.587C116.508 104.084 117.892 102.044 119.35 100.457C120.811 98.8664 122.094 98.178 123.203 98.178C123.512 98.178 123.733 98.2388 123.891 98.3306C124.045 98.4197 124.17 98.5556 124.264 98.7641L124.267 98.7711L124.27 98.778C124.485 99.219 124.615 99.919 124.615 100.928C124.572 103.298 123.732 107.466 122.061 113.476L122.061 113.479C121.444 115.741 120.872 117.914 120.344 119.996C119.809 122.104 119.537 124.022 119.537 125.746C119.537 127.496 120.132 129.097 121.297 130.535L121.303 130.542L121.309 130.549C122.561 131.984 124.268 132.686 126.369 132.686C128.465 132.686 130.451 132.241 132.322 131.35C134.167 130.471 135.835 129.359 137.323 128.015L137.323 128.014C138.852 126.628 140.095 125.12 141.047 123.489Z" fill="black" stroke="black"/>
</svg>
